# xmcd
#
# Track frame offsets: 
#        150
#        5456
#        23988
#        41402
#        58062
#        80091
#        96812
#        108726
#        125199
#        133641
#
# Disc length: 2086 seconds
#
# Revision: 0
# Processed by: cddbd v1.5.2PL0 Copyright (c) Steve Scherf et al.
# Submitted via: ExactAudioCopy v1.0b1
#
DISCID=8908240a
DTITLE=Night Beds - Country Sleep
DYEAR=2013
DGENRE=Alternative
TTITLE0=Faithful Heights
TTITLE1=Ramona
TTITLE2=Even If We Try
TTITLE3=22
TTITLE4=Borrowed Time
TTITLE5=Cherry Blossoms
TTITLE6=Wanted_You In August
TTITLE7=Lost Springs
TTITLE8=Was I For You?
TTITLE9=TENN
EXTD=
EXTT0=
EXTT1=
EXTT2=
EXTT3=
EXTT4=
EXTT5=
EXTT6=
EXTT7=
EXTT8=
EXTT9=
PLAYORDER=
